<?xml version="1.0" encoding="utf-8"?>
<!-- Generator: Adobe Illustrator 24.3.0, SVG Export Plug-In . SVG Version: 6.00 Build 0)  -->
<svg version="1.1" id="Layer_1" xmlns="http://www.w3.org/2000/svg" xmlns:xlink="http://www.w3.org/1999/xlink" x="0px" y="0px"
	 viewBox="0 0 288.5 38" style="enable-background:new 0 0 288.5 38;" xml:space="preserve">
<style type="text/css">
	.st0{fill:#FFFFFF;}
	.st1{enable-background:new    ;}
	.st2{fill:#494949;}
</style>
<g id="Layer_2_1_">
	<g id="Layer_1-2">
		<polygon class="st0" points="146,27.6 150.9,27.6 156.6,4.6 152.1,4.6 149,11.6 145.5,4.6 140.8,4.6 145.5,16.1 146,16.6 		"/>
		<polygon class="st0" points="75.9,27.6 58.3,27.6 58.3,27.2 63.5,4.6 69.9,4.6 76,24.6 		"/>
		<polygon class="st0" points="37.3,4.6 44,4.6 47,5.6 49,6.6 51,8.6 51,16.6 54,24.6 52,27.6 37.3,27.4 		"/>
		<path class="st0" d="M17,4.6h8l2,1c1.3,0.7,2.3,1.7,3,3l2,10l-2,9H17.7l-1.1-0.4V4.6H17z"/>
		<polygon class="st0" points="81,27.6 81.1,4.6 88.7,4.6 91,5.6 94,7.6 95,16.6 94,26.6 91,28.6 		"/>
		<polygon class="st0" points="101.5,4.6 106.7,4.6 106.7,22.6 115,22.6 115,27.6 101.5,27.6 101.2,27.2 		"/>
		<polygon class="st0" points="122,27.6 121.4,27.2 121.6,4.6 135,4.6 135,9.6 128,9.6 128,12.6 132,13.6 132,21.6 135,22.6 
			136,25.6 135,27.6 		"/>
		<polygon class="st0" points="165,18.6 178.3,18.6 178.3,13.4 164.6,13.4 164.6,18.6 		"/>
		<polygon class="st0" points="187,4.6 186.2,4.6 186.2,27.6 191,27.6 204,27.6 196,12.6 202,4.6 195.8,4.6 191,9.6 191,4.6 		"/>
		<polygon class="st0" points="209,4.6 214,16.6 214.4,17.6 214.4,27.4 219.4,27.4 219.6,17.4 225.1,4.6 220.4,4.6 217.1,11.9 
			213.8,4.6 		"/>
		<path class="st0" d="M229.3,27.3l5.5-22.7h6.1l5.4,22.7l-0.6,0.7l-4.4-0.6l-5.8,0.2l-5.6,0.1L229.3,27.3z"/>
		<polygon class="st0" points="252.3,27.6 267.5,27.5 267,4.6 262.3,4.6 262.3,15.4 257.4,4.6 252.3,4.6 		"/>
	</g>
	<g id="Layer_2-2">
		<g class="st1">
			<path class="st2" d="M35.2,22.5c0.4,0.7,0.3,1.7,0.3,2.8c0,1.2,0.2,3-1.1,4.8c-1.3,1.8-3.8,1.6-4.8,1.7c-1.1,0.1-7.7,0.1-8,0
				c-0.4,0-0.4,0-0.6-0.2c-0.2-0.3-4.2-4-4.4-4.2c-0.2-0.2-0.2-0.3-0.2-0.6c0-0.2-0.1-6-0.1-11.6c0-5.3,0.1-10.5,0.1-10.7
				c0-0.1,0-0.2,0.2-0.2c0.2,0,4.3-0.1,5.9-0.1c1.7,0,2.7,0.1,4,0.6c1.2,0.5,3,1.8,4.9,3.7c2,2,2.4,2.8,2.6,3.1
				c0.3,0.3,0.4,0.6,0.6,0.9c0.1,0.4,0.5,1.3,0.8,2.6c0.2,1.2,0.1,3-0.2,3.7c-0.2,0.7-1,1.1-1.2,1.2c-0.2,0-0.3,0-0.1,0.2
				C34.1,20.6,34.9,21.8,35.2,22.5z"/>
			<path class="st0" d="M28.5,15.7c0.1-0.2,1.4-1.7,1.6-3.9c0.2-2.2-0.5-3.5-2-5.1c-1.4-1.5-3.4-2-5.3-2c-2,0-5.5,0-5.7,0
				c-0.3,0-0.3-0.1-0.3,0.1c0,0.1-0.1,5,0,10.2c0,5.8,0.1,11.9,0.1,12c0,0.1,0,0.2,0.1,0.2c0.1,0,6.3-0.1,7.2-0.2
				c0.8-0.1,2.6-0.2,3.9-1.6s2.3-3,2.3-4.8c0-1.7-0.3-2.7-1.1-3.6c-0.8-0.9-0.7-0.8-0.8-0.9C28.4,15.9,28.4,15.8,28.5,15.7z"/>
			<path class="st2" d="M21.1,18.1c0.1,0,1-0.1,1.7-0.1c0.7,0,1.5,0.1,2.2,0.7c0.7,0.6,1.2,2,0.5,3c-0.5,1.1-1.7,1.2-2,1.2
				c-0.3,0-2.1,0-2.3,0c-0.1,0-0.2,0-0.2-0.3c0-0.2-0.1-4.1-0.1-4.3C21,18.2,21,18.1,21.1,18.1z"/>
			<path class="st2" d="M21.2,9C21.4,9,22.3,9,22.7,9c0.4,0,0.9,0,1.5,0.2c0.5,0.2,1.1,0.4,1.5,1.3c0.4,0.9,0.3,1.8-0.2,2.5
				c-0.5,0.6-1.3,0.8-1.7,0.9c-0.4,0.1-2.1,0-2.3,0c-0.2,0-0.4-0.1-0.4-0.2c0-0.1-0.1-1.3-0.1-2.3c0-1,0-2,0-2.2
				C21,9.2,21,9.1,21.2,9z"/>
			<path class="st2" d="M56.7,30.4c0,0.2,0,0.2-0.2,0.5c-0.2,0.2-0.6,0.8-1.2,1C54.8,32.1,53.4,32,53,32c-0.4,0-0.8,0-1.3-0.3
				c-0.6-0.3-4-2.9-4.3-3.2c-0.3-0.3-0.4-0.1-0.4,0.1c0,0.3-0.1,2.9,0,3.1c0,0.2-0.2,0.3-0.4,0.3c-0.3,0-4.4,0-4.5,0
				c-0.2,0-0.2,0-0.3-0.1c-0.1-0.1-4.2-4-4.4-4.2S36.9,27.3,37,27c0-0.3,0-22,0-22.3c0-0.4,0.2-0.4,0.7-0.4c0.5,0,5.5,0,7.4,0.2
				c1.9,0.2,3.5,0.9,4.9,1.9c1.3,1,3.7,3.6,4.4,4.4c0.7,0.9,1.5,1.7,2,3.2c0.5,1.6,0.5,2.9,0.3,3.9c-0.2,1.1-1.2,2.2-1.3,2.4
				c-0.1,0.2-0.1,0.2,0,0.4c0.1,0.1,0.6,0.5,1.1,1.4c0.4,0.9,0.3,2.2,0.4,3.7C56.7,27.2,56.7,30.2,56.7,30.4z"/>
			<path class="st0" d="M52.4,24.2c-0.1-0.1-1-0.3-1.3-1c-0.4-0.6-0.4-0.8-0.4-1.9c0-1-0.1-2.4-0.5-3.3c-0.4-0.8-1-1.5-1.1-1.7
				c-0.1-0.2-0.1-0.2,0-0.3c0.1-0.1,0.9-0.8,1.3-2.5c0.5-1.7,0.3-3.3-0.3-4.4c-0.6-1.1-1.5-2.6-3.2-3.5c-1.8-0.9-3.4-0.9-4.4-0.9
				c-1-0.1-4.6-0.1-4.8-0.1c-0.2,0.1-0.1,0.1-0.2,0.2c0,0.2,0.1,7.3,0,11.3c-0.1,3.9,0,10.5,0,10.7c0,0.2,0,0.3,0.2,0.3s3.5,0,3.6,0
				c0.2,0,0.3,0,0.2-0.3c0-0.2,0-8.2,0-8.4s0.1-0.3,0.3-0.3c0.1,0,2.6-0.2,3.5,0.3c0.8,0.6,1.2,1.1,1.2,2.6c0,1.5,0,4,0.8,4.9
				c0.7,0.9,1.3,1.2,2.1,1.1c0.8,0,1.4,0,2.2-0.9c0.7-0.9,0.7-1.4,0.8-1.6C52.6,24.3,52.6,24.3,52.4,24.2z"/>
			<path class="st2" d="M41.8,9.1C41.9,9,42.6,9,43.5,9c0.8,0,1.3,0.1,1.7,0.3c0.4,0.2,1.7,0.9,1.6,2.4c-0.1,1.6-1,2-1.7,2.2
				c-0.8,0.3-2.6,0.2-3,0.1c-0.4,0-0.4-0.3-0.4-0.4c0-0.2-0.1-4.1-0.1-4.3C41.6,9.1,41.7,9.1,41.8,9.1z"/>
		</g>
		<g class="st1">
			<path class="st2" d="M79.2,32C79,32,74.9,32,74.8,32c-0.2,0-0.3-0.1-0.4-0.2c-0.1-0.1-1.8-1.4-2.3-2c-0.6-0.5-2.2-1.9-2.2-2
				c-0.1-0.1-0.1-0.2-0.1-0.1c0,0.2-0.2,1.1-0.4,1.9c-0.2,0.8-0.4,1.8-0.4,2C68.9,32,68.9,32,68.6,32c-0.2,0-5.5,0-5.9,0
				c-0.3,0-0.4-0.1-0.6-0.3c-0.2-0.2-4.1-4-4.2-4.1c-0.1-0.2-0.1-0.3-0.1-0.5c0.1-0.3,5.3-22.5,5.4-22.7c0.1-0.2,0.1-0.2,0.4-0.2
				c0.3,0,5.7,0,6.1,0c0.4,0,0.5,0.2,0.9,0.4c0.4,0.3,4.2,4,4.4,4.2c0.3,0.3,0.3,0.3,0.4,0.6c0.1,0.3,0.9,3.8,1.6,7
				c0.7,3.1,2.3,9.9,2.3,10.2c0.1,0.3,0.1,0.3,0.1,0.6c0,0.3,0,4.2,0.1,4.4C79.5,31.9,79.4,32,79.2,32z"/>
			<path class="st0" d="M74.6,27c0-0.1-1-4.8-2.1-9.8c-1.3-5.8-2.8-12.1-2.8-12.1c0-0.1,0-0.3-0.2-0.3s-5.3,0-5.4,0
				c-0.1,0-0.1,0-0.1,0.2c0,0.2-5.2,21.9-5.3,22.1c0,0.1,0,0.1,0.1,0.1c0.1,0,1.2,0,2,0s2,0,2.1,0c0.1,0,0.1,0,0.1-0.1
				c0-0.1,0.5-1.9,0.6-2.5c0.2-0.7,0.5-1.9,0.5-2c0.1-0.1,0.1-0.2,0.2-0.2c0.2,0,1.2,0,2.3,0c1.2,0,2.6,0,2.8,0
				c0.2,0,0.3,0.1,0.3,0.3c0,0.1,0.9,4.3,0.9,4.4c0,0.1,0,0.2,0.1,0.2s3.6,0,3.8,0C74.7,27.2,74.6,27.2,74.6,27z"/>
			<path class="st2" d="M68.8,18.7c0.1,0.2-0.2,0.3-0.4,0.3c-0.2,0-3.1,0-3.3,0c-0.1,0-0.3,0-0.3-0.3c0.1-0.3,0.6-2.6,0.9-3.9
				c0.3-1.3,0.8-3.6,0.9-4.1c0.1-0.4,0.3-0.3,0.3-0.1c0.1,0.3,0.6,2.5,1.1,4.5C68.5,17.1,68.8,18.5,68.8,18.7z"/>
		</g>
		<g class="st1">
			<path class="st2" d="M99.2,27.6c-0.1,1.4-0.5,2-1.4,2.9c-0.9,1-1.8,1.3-2.9,1.4c-1.1,0.1-9,0-9.4,0c-0.4,0-0.4,0-0.6-0.2
				c-0.3-0.3-3.9-3.8-4-3.9c-0.2-0.2-0.1-0.2-0.2-0.5c0-0.3,0-5.8,0-8.4c0-2.7,0.2-14,0.2-14.3c0-0.2,0-0.2,0.4-0.3c0.3,0,5,0,6.2,0
				c1.2,0,1.9,0,3.3,0.6c1.4,0.6,2.8,1.9,3.6,2.6c0.8,0.7,1.7,1.6,2.6,2.8s1.6,2.6,1.9,3.2c0.3,0.6,0.3,0.9,0.4,2c0,1,0,4.7,0,6.7
				C99.3,24.3,99.4,26.1,99.2,27.6z"/>
			<path class="st0" d="M93.9,10.7c0-1.3-0.8-2.9-1.9-3.9c-1-1-2.5-1.6-3.5-1.7c-1-0.1-6.6-0.1-6.8-0.1s-0.3-0.1-0.3,0.1
				c0,0.1-0.1,7.5-0.1,8.6c0,1.2,0,13.2-0.1,13.4c0,0.2,0,0.2,0.1,0.2c0.1,0,3.7,0.1,5.6-0.1c1.9-0.1,2.7-0.1,3.9-0.8
				c1.3-0.8,1.8-1.5,2.3-2.4c0.5-0.9,0.7-1.6,0.7-2.4c0-0.8,0-2.1,0.1-3.7C93.9,16.2,93.9,12,93.9,10.7z"/>
			<path class="st2" d="M85.4,9.1c0.1,0,0.5-0.1,1-0.1c0.5,0,0.8,0,1.2,0.1c0.4,0,1.1,0.2,1.7,0.8c0.6,0.7,0.7,1.3,0.7,1.9
				c0.1,0.5,0,2.7,0,4.3s-0.1,4.9-0.2,5.3c-0.1,0.5-0.3,0.8-0.6,1.2c-0.3,0.4-0.6,0.5-1.2,0.6c-0.5,0.1-2.2,0.1-2.5,0
				c-0.2-0.1-0.4-0.2-0.4-0.3c0-0.1,0.1-13.4,0.1-13.6S85.3,9.2,85.4,9.1z"/>
			<path class="st2" d="M120,27.1c0,0.3-0.1,4-0.1,4.4c0,0.5-0.2,0.5-0.4,0.5c-0.4,0-13.2,0-13.4,0c-0.3,0-0.3,0-0.4-0.1
				c-0.1-0.1-1.1-1.1-1.7-1.8c-0.7-0.7-2.7-2.5-2.8-2.7c-0.1-0.1-0.2-0.2-0.2-0.4c0-0.2,0.1-7.5,0.1-11.3c0-3.8,0.2-10.9,0.2-11.1
				c0-0.3,0.1-0.3,0.4-0.3c0.2,0,4.9-0.1,5.1-0.1c0.2,0,0.3-0.1,0.5,0.2c0.2,0.2,4.4,4.4,4.6,4.6c0.2,0.2,0.2,0.3,0.2,0.6
				c0,0.3,0,12,0,12.5c0,0.4,0.2,0.4,0.4,0.4c0.2,0,2.1-0.1,2.4-0.1c0.3,0,0.4,0,0.5,0.2c0.1,0.2,4.5,4,4.7,4.2
				C120.1,26.8,120,26.8,120,27.1z"/>
			<path class="st0" d="M114.7,23c-0.1,0-8.1,0-8.3,0c-0.3,0-0.3-0.1-0.3-0.2c0-0.2-0.1-5.3-0.1-6.2c0-0.9,0-11.6,0-11.7
				s0-0.1-0.2-0.1c-0.1,0-3.7,0-3.9,0c-0.2,0-0.1,0.1-0.1,0.1c0,0.1-0.1,6.6-0.1,7.7c0,1.2-0.1,14.2-0.1,14.3c0,0.2,0,0.2,0.2,0.2
				c0.2,0,12.8,0,12.8,0c0.1,0,0.1,0,0.1-0.2C114.7,26.9,114.8,23.2,114.7,23C114.8,22.9,114.8,23,114.7,23z"/>
		</g>
		<g class="st1">
			<path class="st2" d="M140.3,13.5c0,0.2,0,0.3-0.2,0.3c-0.3,0-6.9-0.1-7.1-0.1c-0.2,0-0.2,0-0.1,0.1c0.1,0.2,2.7,3.7,2.8,3.8
				c0.1,0.1,0.1,0.2,0.1,0.3c0,0.2,0.1,3.6,0.1,3.8c0,0.1,0,0.2-0.1,0.3c-0.1,0-0.1,0.1,0,0.2c0.1,0.1,4.2,4.2,4.4,4.3
				c0.1,0.2,0.1,0.2,0.1,0.4c0,0.1,0,4.4,0,4.7s-0.1,0.3-0.3,0.3c-0.3,0-13.6,0.1-13.8,0.1c-0.2,0-0.2,0-0.3-0.1
				c-0.1-0.1-4.4-4-4.4-4.1c-0.1-0.1-0.3-0.2-0.3-0.4s0.3-22.3,0.2-22.7c0-0.2,0.1-0.3,0.4-0.3c0.3-0.1,13.6,0,13.9,0
				c0.2,0,0.3,0,0.4,0.1c0.2,0.1,3.9,3.4,4.1,3.6c0.2,0.2,0.1,0.2,0.1,0.4C140.3,8.7,140.3,13.3,140.3,13.5z"/>
			<path class="st0" d="M134.8,5.1c0-0.1,0-0.2-0.2-0.2c-0.2,0-12.3-0.1-12.4-0.1c-0.2,0-0.3,0-0.3,0.3c0,0.3-0.4,21.8-0.3,22
				c0,0.2,0,0.2,0.2,0.2c0.2,0,12.7-0.1,12.9-0.1c0.2,0,0.2-0.1,0.1-0.2c0-0.2,0-3.7,0-3.9s0-0.2-0.2-0.2c-0.2,0-8.2,0-8.4,0
				c-0.2,0-0.2-0.1-0.2-0.3c0-0.2,0-4.2,0-4.4c0-0.1,0.1-0.2,0.2-0.3c0.2,0,4.2,0,4.4,0c0.2,0,0.2,0,0.2-0.2s0.1-3.7,0.1-3.9
				c0-0.2,0-0.1-0.1-0.1c-0.1,0-4.5-0.1-4.6-0.1c-0.1,0-0.2-0.1-0.2-0.2s0-4,0-4.3c0-0.1,0-0.1,0.2-0.1c0.2,0,8-0.1,8.3-0.1
				c0.3-0.1,0.3-0.1,0.3-0.3C134.8,8.6,134.8,5.2,134.8,5.1z"/>
		</g>
		<g class="st1">
			<path class="st2" d="M162.3,11.7c0,0.3-0.1,0.4-0.2,0.7c-0.1,0.3-4,9.2-4.2,9.8c-0.2,0.5-0.4,0.9-0.5,1.5
				c-0.1,0.6-0.2,1.5-0.2,1.9c0,0.4-0.1,6.2-0.1,6.3c0,0.2,0,0.2-0.2,0.2c-0.3,0-6.1,0-6.4,0c-0.3,0-0.6-0.1-0.7-0.3
				c-0.1-0.1-3.9-4-4.1-4.2c-0.1-0.2-0.1-0.3-0.1-0.5c0-0.2,0.1-8.7,0.1-8.9c0-0.3,0-0.5-0.1-0.9s-5.2-12.5-5.2-12.7
				c0-0.1,0-0.3,0.2-0.3c0.3,0,4.8,0,5.1,0c0.4,0,0.3,0,0.5,0.2c0.2,0.2,3.5,3.2,3.7,3.4c0.3,0.3,0.3,0.2,0.3,0
				c0.1-0.2,1.5-3.4,1.6-3.6c0.1-0.1,0.1-0.2,0.2-0.2c0.1,0,1.3-0.1,2.6-0.1c1.3,0,2.3,0,2.5,0c0.2,0,0.2,0.1,0.4,0.2
				c0.2,0.2,4.5,4.6,4.6,4.7c0.2,0.2,0.2,0.2,0.2,0.4C162.3,9.8,162.3,11.5,162.3,11.7z"/>
			<path class="st0" d="M156.1,4.8c-0.1,0-3.5-0.1-3.6-0.1s-0.2,0-0.3,0.1c-0.1,0.2-3.3,7.2-3.4,7.4c-0.1,0.2-0.2,0.4-0.4-0.1
				c-0.2-0.5-3.1-7-3.1-7.2c-0.1-0.2-0.1-0.2-0.3-0.2c-0.2,0-3.4,0.1-3.6,0.1c-0.1,0-0.2,0-0.1,0.2c0.1,0.2,4.8,11.6,4.9,11.9
				c0.1,0.3,0.1,0.5,0.1,0.8c0,0.2-0.1,8.8-0.1,9c0,0.2,0,0.3,0.2,0.3c0.2,0,3.8,0.1,3.9,0c0.1,0,0.2,0.1,0.2-0.3
				c0-0.3,0.2-9.2,0.2-9.3c0-0.1,0.1-0.3,0.2-0.4c0.1-0.2,5.2-12,5.3-12.2C156.3,4.9,156.3,4.8,156.1,4.8z"/>
			<path class="st2" d="M183.3,17.5c0,0.3,0,5.3,0,5.6s-0.3,0.5-0.8,0.5c-0.4,0-4.7,0.1-8.2,0.1c-2.4,0-4.4,0-4.6,0
				c-0.5,0-0.7,0-1.1-0.3c-0.3-0.3-3.8-3.7-4-4c-0.3-0.3-0.3-0.5-0.3-0.8c0-0.4,0.1-4.7,0.1-5s0-0.4,0.3-0.4
				c0.5,0,13.4-0.1,13.9-0.1c0.4,0,0.6,0.1,0.8,0.3c0.2,0.2,3.4,3.3,3.6,3.5C183.2,17.1,183.3,17.2,183.3,17.5z"/>
			<path class="st0" d="M177.7,13.8c-0.2,0-12.5,0.3-12.6,0.3c-0.1,0-0.1,0-0.1,0.1c0,0.1-0.1,3.5-0.1,3.7c0,0.1,0,0.1,0.2,0.1
				c0.1,0,12.5-0.1,12.6-0.1c0.2,0,0.2,0,0.2-0.2c0-0.2,0-3.5,0-3.7C177.9,13.8,177.9,13.8,177.7,13.8z"/>
			<path class="st2" d="M208.2,31.7c0,0.2-0.1,0.3-0.3,0.3c-0.3,0-4.4,0.1-4.6,0c-0.2,0-0.4,0-0.5-0.2c-0.2-0.1-1.1-0.9-2.4-2
				c-1.3-1.1-2.5-1.9-2.6-2c-0.2-0.1-0.2-0.1-0.2,0c0,0.1,0,3.3,0,3.6c0,0.4-0.2,0.5-0.4,0.5s-5.6,0.1-5.8,0.1
				c-0.1,0-0.2-0.1-0.4-0.2c-0.1-0.1-4.9-4.3-5-4.5c-0.1-0.2-0.2-0.3-0.2-0.5c0-0.1-0.1-12.2-0.1-13.6c0-2,0.1-6.3,0.1-7.6
				c0-0.3,0.1-0.9,0.1-1.1c0,0,0.1-0.4,0.2-0.4c0.1-0.1,0.4-0.1,0.5-0.1c0.2,0,4.3,0,4.5,0c0.2,0,0.3,0,0.4,0.1
				c0.1,0.1,0.5,0.5,0.9,1c0.4,0.5,0.7,1,0.8,1.2c0.1,0.2,0.1,0.2,0.2,0c0.2-0.1,1.9-1.9,2-2.1c0.2-0.2,0.2-0.2,0.4-0.3
				c0.3,0,7.2,0,7.4-0.1c0.2,0,0.3,0,0.5,0.2c0.2,0.2,3.9,3.6,4,3.7c0.1,0.2,0.1,0.2,0.1,0.4c0,0.2,0,0.3,0,0.6c0,0.2,0,0.3-0.2,0.4
				c-0.2,0.2-2.2,2.3-3.1,3.3c-0.8,0.9-3.4,3.5-3.5,3.6c-0.1,0.1-0.1,0.1,0,0.3s2,4,2.8,5.7c0.9,1.8,3.9,7.6,4.1,7.9
				c0.1,0.2,0.1,0.3,0.1,0.4C208.2,30.8,208.2,31.6,208.2,31.7z"/>
			<path class="st0" d="M202.7,26.8c-0.1-0.2-2.1-4.4-3-6c-0.8-1.7-4.5-8.9-4.5-9.1c-0.1-0.1-0.1-0.2,0.1-0.3
				c0.2-0.2,2.5-2.3,3.4-3.2c0.9-0.8,3-3,3.1-3.1c0.1-0.1,0.2-0.2-0.1-0.1c-0.3,0-4.8,0-5,0c-0.2,0-0.2,0-0.4,0.2
				c-0.2,0.2-1,1.1-1.8,1.9c-0.9,0.8-3.1,2.9-3.3,3c-0.1,0.1-0.2,0.1-0.2-0.1s0-0.3,0-0.3s0-0.7,0-2c0.1-1.3,0.1-2.5,0.1-2.6
				c0-0.1,0-0.2-0.2-0.2c-0.1,0-1.1,0-2.1,0c-1,0-2.1,0-2.2,0c-0.1,0-0.1,0-0.1,0.1c0,0.1,0,6.3,0,8.2c0,1.8,0.1,13.9,0.1,14
				c0,0.1,0,0.2,0.1,0.1c0.1,0,3.9,0,4,0c0.1,0,0.2,0,0.2-0.1c0-0.1,0-11.1,0-11.3s0-0.2,0.1-0.3c0.1-0.1,0.9-1.1,1.1-1.2
				c0.1-0.1,0.1-0.1,0.2,0.1c0.1,0.2,1.5,3,2.2,4.6c0.7,1.5,3.7,7.6,3.8,7.8c0.1,0.1,0.1,0.1,0.2,0.1c0.1,0,4,0,4.2,0
				C202.7,27,202.8,27,202.7,26.8z"/>
		</g>
		<g class="st1">
			<path class="st2" d="M230.7,11.7c0,0.3-0.1,0.4-0.2,0.7c-0.1,0.3-4,9.2-4.2,9.8c-0.2,0.5-0.4,0.9-0.5,1.5
				c-0.1,0.6-0.2,1.5-0.2,1.9c0,0.4-0.1,6.2-0.1,6.3c0,0.2,0,0.2-0.2,0.2c-0.3,0-6.1,0-6.4,0c-0.3,0-0.6-0.1-0.7-0.3
				c-0.1-0.1-3.9-4-4.1-4.2c-0.1-0.2-0.1-0.3-0.1-0.5c0-0.2,0.1-8.7,0.1-8.9c0-0.3,0-0.5-0.1-0.9c-0.1-0.4-5.2-12.5-5.2-12.7
				c0-0.1,0-0.3,0.2-0.3c0.3,0,4.8,0,5.1,0c0.4,0,0.3,0,0.5,0.2c0.2,0.2,3.5,3.2,3.7,3.4c0.3,0.3,0.3,0.2,0.3,0
				c0.1-0.2,1.5-3.4,1.6-3.6c0.1-0.1,0.1-0.2,0.2-0.2c0.1,0,1.3-0.1,2.6-0.1c1.3,0,2.3,0,2.5,0c0.2,0,0.2,0.1,0.4,0.2
				c0.2,0.2,4.5,4.6,4.6,4.7c0.2,0.2,0.2,0.2,0.2,0.4C230.7,9.8,230.7,11.5,230.7,11.7z"/>
			<path class="st0" d="M224.5,4.8c-0.1,0-3.5-0.1-3.6-0.1s-0.2,0-0.3,0.1c-0.1,0.2-3.3,7.2-3.4,7.4c-0.1,0.2-0.2,0.4-0.4-0.1
				c-0.2-0.5-3.1-7-3.1-7.2c-0.1-0.2-0.1-0.2-0.3-0.2c-0.2,0-3.4,0.1-3.6,0.1c-0.1,0-0.2,0-0.1,0.2c0.1,0.2,4.8,11.6,4.9,11.9
				c0.1,0.3,0.1,0.5,0.1,0.8c0,0.2-0.1,8.8-0.1,9c0,0.2,0,0.3,0.2,0.3c0.2,0,3.8,0.1,3.9,0c0.1,0,0.2,0.1,0.2-0.3
				c0-0.3,0.2-9.2,0.2-9.3c0-0.1,0.1-0.3,0.2-0.4c0.1-0.2,5.2-12,5.3-12.2C224.6,4.9,224.6,4.8,224.5,4.8z"/>
		</g>
		<g class="st1">
			<path class="st2" d="M250.3,32c-0.2,0-4.3,0.1-4.4,0.1c-0.2,0-0.3-0.1-0.4-0.2c-0.1-0.1-1.8-1.4-2.3-2c-0.6-0.5-2.2-1.9-2.2-2
				c-0.1-0.1-0.1-0.2-0.1-0.1c0,0.2-0.2,1.1-0.4,1.9c-0.2,0.8-0.4,1.8-0.4,2c-0.1,0.3-0.1,0.3-0.3,0.3c-0.2,0-5.5,0-5.9,0
				c-0.3,0-0.4-0.1-0.6-0.3c-0.2-0.2-4.1-4-4.2-4.1c-0.1-0.2-0.1-0.3-0.1-0.5c0.1-0.3,5.3-22.5,5.4-22.7c0.1-0.2,0.1-0.2,0.4-0.2
				c0.3,0,5.7,0,6.1,0c0.4,0,0.5,0.2,0.9,0.4c0.4,0.3,4.2,4,4.4,4.2c0.3,0.3,0.3,0.3,0.4,0.6c0.1,0.3,0.9,3.8,1.6,7
				c0.7,3.1,2.3,9.9,2.3,10.2c0.1,0.3,0.1,0.3,0.1,0.6c0,0.3,0,4.2,0.1,4.4C250.6,31.9,250.4,32,250.3,32z"/>
			<path class="st0" d="M245.7,27c0-0.1-1-4.8-2.1-9.8c-1.3-5.8-2.8-12.1-2.8-12.1c0-0.1,0-0.3-0.2-0.3s-5.3,0-5.4,0
				c-0.1,0-0.1,0-0.1,0.2c0,0.2-5.2,21.9-5.3,22.1c0,0.1,0,0.1,0.1,0.1c0.1,0,1.2,0,2,0s2,0,2.1,0c0.1,0,0.1,0,0.1-0.1
				c0-0.1,0.5-1.9,0.6-2.5c0.2-0.7,0.5-1.9,0.5-2c0.1-0.1,0.1-0.2,0.2-0.2c0.2,0,1.2,0,2.3,0c1.2,0,2.6,0,2.8,0
				c0.2,0,0.3,0.1,0.3,0.3c0,0.1,0.9,4.3,0.9,4.4c0,0.1,0,0.2,0.1,0.2s3.6,0,3.8,0C245.7,27.2,245.7,27.2,245.7,27z"/>
			<path class="st2" d="M239.9,18.7c0.1,0.2-0.2,0.3-0.4,0.3c-0.2,0-3.1,0-3.3,0c-0.1,0-0.3,0-0.3-0.3c0.1-0.3,0.6-2.6,0.9-3.9
				c0.3-1.3,0.8-3.6,0.9-4.1c0.1-0.4,0.3-0.3,0.3-0.1c0.1,0.3,0.6,2.5,1.1,4.5C239.6,17.1,239.9,18.5,239.9,18.7z"/>
			<path class="st2" d="M272.2,31.3c0,0.5-0.2,0.7-0.3,0.8c-0.2,0-4.5,0-4.9,0c-0.3,0-0.5-0.1-0.8-0.3c-0.3-0.2-3-2-3.3-2.2
				c-0.3-0.3-0.3-0.2-0.3,0.1c0,0.3,0,1.7,0,2c0,0.4-0.2,0.4-0.5,0.4s-5.2,0-5.4,0c-0.2,0-0.3,0-0.5-0.2c-0.2-0.2-3.6-3.4-3.9-3.6
				c-0.3-0.2-0.3-0.3-0.3-0.7c0-0.3,0-9,0-11.1c0-2.1,0.1-11.7,0.1-11.9c0-0.3,0.1-0.3,0.4-0.3c0.3,0,4.3-0.1,4.7-0.1
				c0.4,0,0.5,0.1,0.8,0.3c0.3,0.2,3.3,1.9,3.8,2.3c0.4,0.4,0.3,0.2,0.3-0.1c0-0.3,0-1.9,0-2.1c0-0.3,0-0.3,0.3-0.3
				c0.3,0,4.7,0,5.2,0c0.4,0,0.6,0.1,0.8,0.3c0.2,0.1,0.9,0.6,1.8,1.4c0.9,0.8,1.2,1.3,1.5,1.6c0.3,0.3,0.3,0.4,0.3,1
				C272.1,9.1,272.2,30.8,272.2,31.3z"/>
			<path class="st0" d="M266.9,26.9c0-0.2-0.1-21.8-0.1-22c0-0.1-0.1-0.2-0.3-0.2c-0.2,0-3.6,0.1-3.7,0.1c-0.1,0-0.2,0-0.2,0.3
				c0,0.3,0,11.4,0,11.8c0,0.4,0.1,0.8-0.3,0c-0.4-0.8-2.1-5.1-2.8-6.7c-0.7-1.5-2.3-5.2-2.4-5.3c-0.1-0.2-0.1-0.2-0.2-0.2
				c-0.1,0-3.9,0.1-4.1,0.1c-0.2,0-0.2,0.1-0.2,0.2c0,0.2,0,9.4,0,12.2c0,2.8,0,9.4,0,9.6c0,0.2,0,0.3,0.1,0.3s3.6-0.1,3.8-0.1
				c0.2,0,0.3,0.1,0.3-0.4c0-0.4-0.1-12.3-0.1-12.8c0-0.5,0.2-0.2,0.2,0.1c0.1,0.2,5.6,12.8,5.7,13c0.1,0.2,0.1,0.3,0.3,0.3
				c0.2,0,3.6-0.1,3.7-0.1C266.9,27.2,266.9,27.1,266.9,26.9z"/>
		</g>
	</g>
</g>
</svg>
