<svg xmlns="http://www.w3.org/2000/svg" viewBox="0 0 288.45 38.02"><defs><style>.cls-1{fill:#fff;}.cls-2{font-size:32px;font-family:WTRGothicOpenShaded, WTR Gothic Open Shaded;}.cls-3{letter-spacing:-0.01em;}.cls-4{letter-spacing:-0.02em;}.cls-5{letter-spacing:-0.09em;}</style></defs><g id="Layer_2" data-name="Layer 2"><g id="Layer_1-2" data-name="Layer 1"><polygon class="cls-1" points="146 27.58 150.92 27.58 156.58 4.58 152.06 4.58 149 11.58 145.52 4.58 140.78 4.58 145.52 16.08 146 16.58 146 27.58"/><polygon class="cls-1" points="75.92 27.58 58.26 27.58 58.26 27.2 63.53 4.58 69.87 4.58 76 24.58 75.92 27.58"/><polygon class="cls-1" points="37.29 4.58 44 4.58 47 5.58 49 6.58 51 8.58 51 16.58 54 24.58 52 27.58 37.29 27.37 37.29 4.58"/><path class="cls-1" d="M17,4.58h8l2,1a7.47,7.47,0,0,1,3,3l2,10-2,9H17.66L16.6,27.2V4.58Z"/><polygon class="cls-1" points="81 27.58 81.1 4.58 88.74 4.58 91 5.58 94 7.58 95 16.58 94 26.58 91 28.58 81 27.58"/><polygon class="cls-1" points="101.47 4.58 106.73 4.58 106.73 22.58 115 22.58 115 27.58 101.47 27.58 101.19 27.2 101.47 4.58"/><polygon class="cls-1" points="122 27.58 121.39 27.2 121.62 4.58 135 4.58 135 9.58 128 9.58 128 12.58 132 13.58 132 21.58 135 22.58 136 25.58 135 27.58 122 27.58"/><polygon class="cls-1" points="165 18.58 178.32 18.58 178.32 13.42 164.65 13.42 164.65 18.58 165 18.58"/><polygon class="cls-1" points="187 4.58 186.16 4.58 186.16 27.58 191 27.58 203.97 27.58 196 12.58 202 4.58 195.84 4.58 191 9.58 191 4.58 187 4.58"/><polygon class="cls-1" points="209 4.58 214 16.58 214.37 17.56 214.38 27.37 219.42 27.43 219.65 17.42 225.13 4.58 220.42 4.58 217.06 11.9 213.84 4.58 209 4.58"/><path class="cls-1" d="M229.26,27.29l5.48-22.71h6.13l5.36,22.71-.65.74-4.39-.6-5.84.18-5.58.13Z"/><polygon class="cls-1" points="252.29 27.61 267.48 27.45 266.97 4.58 262.32 4.58 262.32 15.42 257.36 4.58 252.29 4.58 252.29 27.61"/></g><g id="Layer_2-2" data-name="Layer 2"><text class="cls-2" transform="translate(15.46 27.2)">br<tspan class="cls-3" x="41.73" y="0">a</tspan><tspan x="64.42" y="0">dl</tspan><tspan class="cls-4" x="104.77" y="0">e</tspan><tspan x="124.74" y="0">y-k</tspan><tspan class="cls-5" x="193.09" y="0">y</tspan><tspan x="212.8" y="0">an</tspan></text></g></g></svg>